<svg xmlns="http://www.w3.org/2000/svg" xmlns:xlink="http://www.w3.org/1999/xlink" width="102.887" height="103.18" viewBox="0 0 102.887 103.18"><defs><clipPath id="a"><path d="M0,.313A2.794,2.794,0,0,0,2.779,2.79,2.794,2.794,0,0,0,5.557.3.308.308,0,0,0,5.285,0H.291A.313.313,0,0,0,0,.313Z" transform="translate(0 0)" fill="rgba(0,0,0,0.7)"/></clipPath><clipPath id="b"><path d="M8.381,13.024A11.881,11.881,0,0,1,4.574,12.2,7.146,7.146,0,0,1,1.147,9.131,8.392,8.392,0,0,1,.322,7.176,7.02,7.02,0,0,1,.052,5.339V2.36A9.6,9.6,0,0,1,.1.016.045.045,0,0,1,.135,0,7.821,7.821,0,0,1,.5,2.871c0,.413.005.8.032,1.18A8.394,8.394,0,0,0,.829,5.839a2.777,2.777,0,0,0,.939,1.51,6.629,6.629,0,0,0,.807.512,2.122,2.122,0,0,0,.937.283.921.921,0,0,0,.231-.028c.214-.056.331-.383.468-.762a2.366,2.366,0,0,1,.574-1.038,3.15,3.15,0,0,1,.987-.542,3.45,3.45,0,0,1,1.1-.177c.053,0,.108,0,.161,0l.112,0a2.222,2.222,0,0,1,1.233.274A2.221,2.221,0,0,1,9.613,5.6l.113,0c.054,0,.108,0,.161,0a3.45,3.45,0,0,1,1.1.177,3.15,3.15,0,0,1,.987.542,2.367,2.367,0,0,1,.574,1.038c.136.379.254.707.468.762a.921.921,0,0,0,.231.028,2.122,2.122,0,0,0,.937-.283,6.63,6.63,0,0,0,.807-.512,2.778,2.778,0,0,0,.939-1.51,8.388,8.388,0,0,0,.294-1.788c.027-.377.03-.767.032-1.18A7.82,7.82,0,0,1,16.627,0a.045.045,0,0,1,.033.016,9.6,9.6,0,0,1,.05,2.344V5.339a7.1,7.1,0,0,1-.271,1.844,8.529,8.529,0,0,1-.825,1.972,7.134,7.134,0,0,1-3.427,3.1,11.3,11.3,0,0,1-1.694.5A10.3,10.3,0,0,1,8.381,13.024Zm0-2.746a1.485,1.485,0,0,1,.793.219,1.9,1.9,0,0,1,.411.355c.047.052.079.086.1.09a1.467,1.467,0,0,0,.3.033,1.382,1.382,0,0,0,.958-.414,2.324,2.324,0,0,0,.925-2.451,1.71,1.71,0,0,0-1.011-1.2,2.763,2.763,0,0,0-.749-.08c-.1,0-.211,0-.314,0h0c-.1,0-.207,0-.308,0A2.944,2.944,0,0,1,8.908,6.8a1.283,1.283,0,0,1-.527-.213,1.283,1.283,0,0,1-.527.213,2.946,2.946,0,0,1-.577.044c-.1,0-.207,0-.308,0h0c-.1,0-.21,0-.314,0a2.537,2.537,0,0,0-.748.08,1.71,1.71,0,0,0-1.011,1.2,2.324,2.324,0,0,0,.925,2.451,1.382,1.382,0,0,0,.958.414,1.467,1.467,0,0,0,.3-.033c.019,0,.05-.038.1-.09a1.9,1.9,0,0,1,.411-.355A1.485,1.485,0,0,1,8.381,10.278Z" fill="#4a312c"/></clipPath></defs><g transform="translate(-327 -154.82)"><rect width="83" height="83" rx="6" transform="translate(327 175)"/><path d="M12.709-55.813a8.75,8.75,0,0,1,2.166-2.857,11,11,0,0,1,2.976-1.9,8.07,8.07,0,0,1,2.762-.714l-.19,4.428a7.249,7.249,0,0,0-3.88.857,6.9,6.9,0,0,0-2.714,2.643,7.075,7.075,0,0,0-.976,3.595v9H8.424V-60.48h3.952ZM54.8-75.192,39.611-39.149,24.422-75.192H29.9l9.9,24.806,9.57-24.806Z" transform="translate(336.431 273.84)" fill="#fff"/><g transform="translate(391.552 157.82)"><g transform="translate(0 0)" fill="#ff5c5c"><path d="M 17.66714859008789 36.83429718017578 C 15.0802583694458 36.83429718017578 12.56995868682861 36.32732009887695 10.20596885681152 35.32742691040039 C 7.923378467559814 34.36198043823242 5.873718738555908 32.98016738891602 4.11392879486084 31.22036933898926 C 2.35412859916687 29.46057891845703 0.9723185896873474 27.41091918945312 0.006868590135127306 25.12832832336426 C -0.9930214285850525 22.76433944702148 -1.500001430511475 20.25403785705566 -1.500001430511475 17.66714859008789 C -1.500001430511475 15.0802583694458 -0.9930214285850525 12.56995868682861 0.006868590135127306 10.20596885681152 C 0.9723185896873474 7.923378467559814 2.35412859916687 5.873718738555908 4.11392879486084 4.11392879486084 C 5.873718738555908 2.35412859916687 7.923378467559814 0.9723185896873474 10.20596885681152 0.006868590135127306 C 12.56995868682861 -0.9930214285850525 15.0802583694458 -1.500001430511475 17.66714859008789 -1.500001430511475 C 20.25403785705566 -1.500001430511475 22.76433944702148 -0.9930214285850525 25.12832832336426 0.006868590135127306 C 27.41091918945312 0.9723185896873474 29.46057891845703 2.35412859916687 31.22036933898926 4.11392879486084 C 32.98016738891602 5.873718738555908 34.36198043823242 7.923378467559814 35.32742691040039 10.20596885681152 C 36.32732009887695 12.56995868682861 36.83429718017578 15.0802583694458 36.83429718017578 17.66714859008789 C 36.83429718017578 20.25403785705566 36.32732009887695 22.76433944702148 35.32742691040039 25.12832832336426 C 34.36198043823242 27.41091918945312 32.98016738891602 29.46057891845703 31.22036933898926 31.22036933898926 C 29.46057891845703 32.98016738891602 27.41091918945312 34.36198043823242 25.12832832336426 35.32742691040039 C 22.76433944702148 36.32732009887695 20.25403785705566 36.83429718017578 17.66714859008789 36.83429718017578 Z" stroke="none"/><path d="M 17.66714859008789 0 C 7.909849166870117 0 0 7.909849166870117 0 17.66714859008789 C 0 27.42444801330566 7.909849166870117 35.33429718017578 17.66714859008789 35.33429718017578 C 27.42444801330566 35.33429718017578 35.33429718017578 27.42444801330566 35.33429718017578 17.66714859008789 C 35.33429718017578 7.909849166870117 27.42444801330566 0 17.66714859008789 0 M 17.66714859008789 -3 C 20.45587921142578 -3 23.16277885437012 -2.453151702880859 25.7126579284668 -1.374641418457031 C 28.17404937744141 -0.3335609436035156 30.38396835327148 1.156200408935547 32.28102874755859 3.053268432617188 C 34.17809677124023 4.950328826904297 35.6678581237793 7.160247802734375 36.70893859863281 9.621639251708984 C 37.78744888305664 12.17151832580566 38.33429718017578 14.87841796875 38.33429718017578 17.66714859008789 C 38.33429718017578 20.45587921142578 37.78744888305664 23.16277885437012 36.70893859863281 25.7126579284668 C 35.6678581237793 28.17404937744141 34.17809677124023 30.38396835327148 32.28102874755859 32.28102874755859 C 30.38396835327148 34.17809677124023 28.17404937744141 35.6678581237793 25.7126579284668 36.70893859863281 C 23.16277885437012 37.78744888305664 20.45587921142578 38.33429718017578 17.66714859008789 38.33429718017578 C 14.87841796875 38.33429718017578 12.17151832580566 37.78744888305664 9.621639251708984 36.70893859863281 C 7.160247802734375 35.6678581237793 4.950328826904297 34.17809677124023 3.053268432617188 32.28102874755859 C 1.156200408935547 30.38396835327148 -0.3335609436035156 28.17404937744141 -1.374641418457031 25.7126579284668 C -2.453151702880859 23.16277885437012 -3 20.45587921142578 -3 17.66714859008789 C -3 14.87841796875 -2.453151702880859 12.17151832580566 -1.374641418457031 9.621639251708984 C -0.3335609436035156 7.160247802734375 1.156200408935547 4.950328826904297 3.053268432617188 3.053268432617188 C 4.950328826904297 1.156200408935547 7.160247802734375 -0.3335609436035156 9.621639251708984 -1.374641418457031 C 12.17151832580566 -2.453151702880859 14.87841796875 -3 17.66714859008789 -3 Z" stroke="none" fill="#fff"/></g><rect width="7.115" height="14.11" transform="translate(14.11 17.004)" fill="#edb98a"/><path d="M7.8,0H19.862a8.685,8.685,0,0,1,7.754,4.768,17.64,17.64,0,0,1-13.845,6.688A17.639,17.639,0,0,1,0,4.861,8.685,8.685,0,0,1,7.8,0Z" transform="translate(3.859 23.878)" fill="#edb98a"/><path d="M13.771,11.457A17.639,17.639,0,0,1,0,4.861,8.685,8.685,0,0,1,7.8,0H9.038a2.053,2.053,0,0,0-.063.5c0,1.737,2.207,3.145,4.93,3.145S18.835,2.241,18.835.5a2.053,2.053,0,0,0-.063-.5h1.091a8.705,8.705,0,0,1,7.754,4.791A17.62,17.62,0,0,1,13.771,11.457Z" transform="translate(3.859 23.878)" fill="#262e33"/><rect width="3.618" height="5.427" rx="1.809" transform="translate(23.637 9.045)" fill="#edb98a"/><rect width="3.618" height="5.427" rx="1.809" transform="translate(7.718 9.045)" fill="#edb98a"/><rect width="16.474" height="22.03" rx="8.237" transform="translate(9.165 0)" fill="#edb98a"/><path d="M7.115,1.207a8.029,8.029,0,0,1-3.822.964A8.025,8.025,0,0,1,0,1.468V.261a8.025,8.025,0,0,0,3.293.7A8.029,8.029,0,0,0,7.115,0V1.207Z" transform="translate(14.11 20.984)" fill="#d4a67b"/><g transform="translate(14.555 28.728)"><path d="M1.872,6.168h0c-.249,0-.314-.188-.376-.37a.548.548,0,0,0-.217-.339.3.3,0,0,0-.143-.034.984.984,0,0,0-.42.151c-.058.031-.112.06-.163.081L.5,5.679a.715.715,0,0,1-.269.079.225.225,0,0,1-.178-.081c-.144-.164.028-.418.131-.57l.029-.043A14.917,14.917,0,0,0,1.67,2.384l.123-.3h0c.116-.285.236-.579.347-.871.019-.049.037-.1.055-.148a1.707,1.707,0,0,1,.46-.79.779.779,0,0,1,.018.191.7.7,0,0,0,.019.189c.011.038.017.064.022.084.011.05.011.05.059.059a1.068,1.068,0,0,1,.106.026,1.554,1.554,0,0,1,.414.208,3.456,3.456,0,0,1,.879.793,8.337,8.337,0,0,1,.515.759l.04.065a2.3,2.3,0,0,1,.238.461.775.775,0,0,1,.027.182c.008.118.016.229.113.252a.62.62,0,0,1-.181.192.73.73,0,0,0,.55-.453,1.22,1.22,0,0,0-.125-.859,4.039,4.039,0,0,0-.5-.8A3.353,3.353,0,0,0,3.654.584a3.4,3.4,0,0,0-.59-.2,3.746,3.746,0,0,1-.535-.17A.561.561,0,0,1,3,0a1.829,1.829,0,0,1,.835.268,4.33,4.33,0,0,1,.65.441,4.764,4.764,0,0,1,.9.994,2.861,2.861,0,0,1,.492,1.235,1.136,1.136,0,0,1-.026.418.97.97,0,0,1-.187.392.506.506,0,0,1-.379.2H5.27a.552.552,0,0,1-.23-.063l-.014-.006a.467.467,0,0,0-.184-.056l-.028,0a1.455,1.455,0,0,0-.415.2c-.075.045-.146.087-.2.113a1.947,1.947,0,0,0-.958.725.62.62,0,0,1-.5.359.558.558,0,0,1-.325-.122,1.512,1.512,0,0,0-.094.383c-.052.317-.112.676-.425.692ZM1.8,4.985h0c.035,0,.055,0,.059.009a0,0,0,0,1,0,0,.963.963,0,0,1-.267.253,1.366,1.366,0,0,1,.178.316,2.1,2.1,0,0,0,.106.213,1.525,1.525,0,0,0,.083-.391c.037-.286.076-.583.319-.681a.375.375,0,0,1,.142-.031A.342.342,0,0,1,2.6,4.74l.019.012a.238.238,0,0,0,.12.05c.061,0,.124-.056.2-.181a1.992,1.992,0,0,1,.707-.65,4.946,4.946,0,0,1,.9-.389,1.039,1.039,0,0,1,.274-.053,5.269,5.269,0,0,1-.472-.757,5.713,5.713,0,0,0-.442-.72A2.671,2.671,0,0,0,3.3,1.465c-.063-.044-.131-.085-.2-.124A1.408,1.408,0,0,1,2.63.957c-.068.2-.153.4-.235.6l-.008.018a.553.553,0,0,1,.077-.005.579.579,0,0,1,.345.119.847.847,0,0,1,.244.295.766.766,0,0,1-.006.783.919.919,0,0,1-.682.326A.474.474,0,0,1,2.067,3a.444.444,0,0,1-.156-.311,13.624,13.624,0,0,1-.625,1.293h.032a.289.289,0,0,1,.308.28.62.62,0,0,1-.084.367.469.469,0,0,1-.293.233.3.3,0,0,1-.068.008.47.47,0,0,1-.109-.016A.6.6,0,0,0,.96,4.831c-.039-.049-.072-.074-.1-.074S.813,4.782.8,4.832c-.044.071-.09.141-.134.21-.055.084-.106.159-.155.229a3.415,3.415,0,0,1,.585-.205l.017,0A6.431,6.431,0,0,1,1.8,4.985Z" transform="translate(0 0)" fill="#fff"/><path d="M.888.023C.531-.043.034.012,0,.486a.771.771,0,0,0,.453.685c.753.367,1.34-.982.433-1.148" transform="translate(1.838 3.331)" fill="#fff"/><path d="M.858.346A.425.425,0,0,0,.465.2C.511.169.549.112.592.077.128-.258-.164.588.1.921.5,1.427,1.282.809.858.346" transform="translate(3.309 2.467)" fill="#fff"/></g><g transform="translate(11.011 7.373)"><g transform="translate(3.734 8.806)"><path d="M0,.313A2.794,2.794,0,0,0,2.779,2.79,2.794,2.794,0,0,0,5.557.3.308.308,0,0,0,5.285,0H.291A.313.313,0,0,0,0,.313Z" transform="translate(0 0)" fill="rgba(0,0,0,0.7)"/><path d="M0,0H4.56V.131a.6.6,0,0,1-.6.6H.6a.6.6,0,0,1-.6-.6V0Z" transform="translate(0.572 0)" fill="#fff"/><path d="M3.734.461a2.787,2.787,0,0,1-1.867.714A2.787,2.787,0,0,1,0,.461,1.621,1.621,0,0,1,1.867.176,1.621,1.621,0,0,1,3.734.461Z" transform="translate(0.911 1.616)" fill="#ff4f6d"/></g><g transform="translate(4.747 6.31)"><path d="M0,0C0,.666.783,1.206,1.749,1.206h0C2.714,1.206,3.5.666,3.5,0" transform="translate(0 0)" fill="rgba(0,0,0,0.16)"/></g><g transform="translate(0.629 1.61)"><ellipse cx="2.059" cy="2.056" rx="2.059" ry="2.056" transform="translate(0 0)" fill="#fff"/><ellipse cx="2.059" cy="2.056" rx="2.059" ry="2.056" transform="translate(7.649 0)" fill="#fff"/><ellipse cx="0.883" cy="0.881" rx="0.883" ry="0.881" transform="translate(1.177 2.35)" fill="rgba(0,0,0,0.7)"/><ellipse cx="0.883" cy="0.881" rx="0.883" ry="0.881" transform="translate(8.825 2.35)" fill="rgba(0,0,0,0.7)"/></g><g transform="translate(0 0)"><path d="M2.088.032C1.231.148-.105.905.007,1.781A.037.037,0,0,0,.072,1.8C.441,1.315,3.3.608,4.342.756c.1.014.158-.086.093-.148A3.031,3.031,0,0,0,2.088.032" transform="matrix(0.996, 0.087, -0.087, 0.996, 0.158, 0)" fill="rgba(0,0,0,0.6)"/><path d="M2.374.034C3.231.158,4.567.966,4.455,1.9a.036.036,0,0,1-.065.015C4.021,1.4,1.161.649.12.806A.1.1,0,0,1,.027.648,2.89,2.89,0,0,1,2.374.034" transform="matrix(0.996, -0.087, 0.087, 0.996, 8.683, 0.389)" fill="rgba(0,0,0,0.6)"/></g></g><g transform="translate(9.166 8.924)"><path d="M8.381,13.024A11.881,11.881,0,0,1,4.574,12.2,7.146,7.146,0,0,1,1.147,9.131,8.392,8.392,0,0,1,.322,7.176,7.02,7.02,0,0,1,.052,5.339V2.36A9.6,9.6,0,0,1,.1.016.045.045,0,0,1,.135,0,7.821,7.821,0,0,1,.5,2.871c0,.413.005.8.032,1.18A8.394,8.394,0,0,0,.829,5.839a2.777,2.777,0,0,0,.939,1.51,6.629,6.629,0,0,0,.807.512,2.122,2.122,0,0,0,.937.283.921.921,0,0,0,.231-.028c.214-.056.331-.383.468-.762a2.366,2.366,0,0,1,.574-1.038,3.15,3.15,0,0,1,.987-.542,3.45,3.45,0,0,1,1.1-.177c.053,0,.108,0,.161,0l.112,0a2.222,2.222,0,0,1,1.233.274A2.221,2.221,0,0,1,9.613,5.6l.113,0c.054,0,.108,0,.161,0a3.45,3.45,0,0,1,1.1.177,3.15,3.15,0,0,1,.987.542,2.367,2.367,0,0,1,.574,1.038c.136.379.254.707.468.762a.921.921,0,0,0,.231.028,2.122,2.122,0,0,0,.937-.283,6.63,6.63,0,0,0,.807-.512,2.778,2.778,0,0,0,.939-1.51,8.388,8.388,0,0,0,.294-1.788c.027-.377.03-.767.032-1.18A7.82,7.82,0,0,1,16.627,0a.045.045,0,0,1,.033.016,9.6,9.6,0,0,1,.05,2.344V5.339a7.1,7.1,0,0,1-.271,1.844,8.529,8.529,0,0,1-.825,1.972,7.134,7.134,0,0,1-3.427,3.1,11.3,11.3,0,0,1-1.694.5A10.3,10.3,0,0,1,8.381,13.024Zm0-2.746a1.485,1.485,0,0,1,.793.219,1.9,1.9,0,0,1,.411.355c.047.052.079.086.1.09a1.467,1.467,0,0,0,.3.033,1.382,1.382,0,0,0,.958-.414,2.324,2.324,0,0,0,.925-2.451,1.71,1.71,0,0,0-1.011-1.2,2.763,2.763,0,0,0-.749-.08c-.1,0-.211,0-.314,0h0c-.1,0-.207,0-.308,0A2.944,2.944,0,0,1,8.908,6.8a1.283,1.283,0,0,1-.527-.213,1.283,1.283,0,0,1-.527.213,2.946,2.946,0,0,1-.577.044c-.1,0-.207,0-.308,0h0c-.1,0-.21,0-.314,0a2.537,2.537,0,0,0-.748.08,1.71,1.71,0,0,0-1.011,1.2,2.324,2.324,0,0,0,.925,2.451,1.382,1.382,0,0,0,.958.414,1.467,1.467,0,0,0,.3-.033c.019,0,.05-.038.1-.09a1.9,1.9,0,0,1,.411-.355A1.485,1.485,0,0,1,8.381,10.278Z" transform="translate(0 0)" fill="#4a312c"/></g><g transform="translate(7.998 8.023)"><g transform="translate(0 0)"><path d="M3.677,6.022H3.272C1.223,6.022,0,4.9,0,3.011,0,1.487.267,0,3.461,0h.433C7.087,0,7.354,1.487,7.354,3.011,7.354,4.783,5.842,6.022,3.677,6.022ZM3.44.881C.588.881.588,1.886.588,3.158c0,1.038.459,2.276,2.643,2.276h.446c1.819,0,3.089-.936,3.089-2.276,0-1.272,0-2.277-2.851-2.277Z" transform="translate(1.324 0)" fill="#252c2f"/><path d="M3.677,6.022H3.272C1.223,6.022,0,4.9,0,3.011,0,1.487.267,0,3.461,0h.433C7.087,0,7.354,1.487,7.354,3.011,7.354,4.783,5.842,6.022,3.677,6.022ZM3.44.881C.588.881.588,1.886.588,3.158c0,1.038.459,2.276,2.643,2.276h.446c1.819,0,3.089-.936,3.089-2.276,0-1.272,0-2.277-2.851-2.277Z" transform="translate(10.443 0)" fill="#252c2f"/><path d="M.435.848C.536.748,1.649,0,4.78,0,7.406,0,7.962.272,8.8.683l.062.03a2.506,2.506,0,0,0,.708.133,2.5,2.5,0,0,0,.671-.128A8.347,8.347,0,0,1,14.341,0c3.132,0,4.244.748,4.346.848a.429.429,0,0,1,.435.424V1.7a.429.429,0,0,1-.435.424s-1.015,0-1.015.424-.289-.613-.289-.848V1.283A7.774,7.774,0,0,0,14.341.7a7.817,7.817,0,0,0-3.353.615l.008.02v.292l-.326.786-.4-.159a1.919,1.919,0,0,0-.221-.066,2.043,2.043,0,0,0-.881-.04,1.165,1.165,0,0,0-.278.093l-.389.19-.389-.758.017-.337.012-.029A6.428,6.428,0,0,0,4.78.7a7.775,7.775,0,0,0-3.042.579V1.7c0,.234-.435,1.271-.435.848S.435,2.119.435,2.119A.429.429,0,0,1,0,1.7V1.271A.429.429,0,0,1,.435.848Z" transform="translate(0 0)" fill="#252c2f"/></g></g></g></g></svg>