<svg xmlns="http://www.w3.org/2000/svg" xmlns:xlink="http://www.w3.org/1999/xlink" width="221.18" height="221.18" viewBox="0 0 221.18 221.18"><defs><clipPath id="a"><path d="M0,.683A6.1,6.1,0,0,0,6.069,6.1,6.1,6.1,0,0,0,12.139.654.672.672,0,0,0,11.545,0H.635A.684.684,0,0,0,0,.683Z" transform="translate(0 0)" fill="rgba(0,0,0,0.7)"/></clipPath><clipPath id="b"><path d="M18.306,28.448A25.952,25.952,0,0,1,9.99,26.656a15.609,15.609,0,0,1-7.485-6.712A18.33,18.33,0,0,1,.7,15.674a15.334,15.334,0,0,1-.591-4.012V5.156C.109,5.109-.2.488.222.036A.1.1,0,0,1,.294,0a17.082,17.082,0,0,1,.8,6.27c.006.9.012,1.753.071,2.576a18.334,18.334,0,0,0,.642,3.906,6.067,6.067,0,0,0,2.051,3.3,14.479,14.479,0,0,0,1.763,1.118,4.634,4.634,0,0,0,2.046.617,2.011,2.011,0,0,0,.5-.061c.467-.121.724-.837,1.022-1.665a5.168,5.168,0,0,1,1.255-2.267,6.88,6.88,0,0,1,2.156-1.184,7.535,7.535,0,0,1,2.408-.386c.117,0,.235,0,.353.008l.245.009a4.854,4.854,0,0,1,2.693.6,4.852,4.852,0,0,1,2.692-.6l.246-.009c.117-.005.236-.008.353-.008A7.535,7.535,0,0,1,24,12.608a6.882,6.882,0,0,1,2.156,1.184,5.169,5.169,0,0,1,1.254,2.267c.3.828.554,1.544,1.021,1.665a2.012,2.012,0,0,0,.505.061,4.634,4.634,0,0,0,2.046-.617,14.483,14.483,0,0,0,1.763-1.118,6.067,6.067,0,0,0,2.051-3.3,18.322,18.322,0,0,0,.642-3.906c.059-.824.065-1.676.071-2.577A17.08,17.08,0,0,1,36.318,0a.1.1,0,0,1,.072.036c.423.452.113,5.073.109,5.12v6.507a15.5,15.5,0,0,1-.591,4.028A18.63,18.63,0,0,1,34.107,20a15.582,15.582,0,0,1-7.485,6.764,24.687,24.687,0,0,1-3.7,1.1A22.5,22.5,0,0,1,18.306,28.448Zm0-6a3.243,3.243,0,0,1,1.732.479,4.156,4.156,0,0,1,.9.776c.1.113.172.187.213.2a3.205,3.205,0,0,0,.663.073,3.019,3.019,0,0,0,2.092-.9c1.363-1.238,2.819-3.171,2.021-5.354-.541-1.48-1.263-2.334-2.207-2.613a6.036,6.036,0,0,0-1.635-.175c-.228,0-.46,0-.685.01h-.007c-.223,0-.452.009-.674.009a6.431,6.431,0,0,1-1.26-.1,2.8,2.8,0,0,1-1.151-.466,2.8,2.8,0,0,1-1.151.466,6.434,6.434,0,0,1-1.26.1c-.221,0-.451,0-.673-.009h-.007c-.225,0-.458-.01-.685-.01a5.542,5.542,0,0,0-1.635.175c-.944.278-1.666,1.133-2.207,2.613-.8,2.183.659,4.116,2.021,5.354a3.019,3.019,0,0,0,2.092.9,3.2,3.2,0,0,0,.663-.073c.041-.009.11-.083.213-.2a4.156,4.156,0,0,1,.9-.776A3.243,3.243,0,0,1,18.306,22.45Z" fill="#4a312c"/></clipPath></defs><g transform="translate(-327 -154.82)"><rect width="180" height="180" rx="6" transform="translate(327 196)"/><text transform="translate(360 312)" fill="#fff" font-size="104" font-family="JosefinSans-Regular, Josefin Sans"><tspan x="0" y="0">rV</tspan></text><g transform="translate(464 153.82)"><g transform="translate(4 4)" fill="#ff5c5c"><path d="M 38.58984375 78.6796875 C 33.17840957641602 78.6796875 27.92805480957031 77.6195068359375 22.98460960388184 75.52861022949219 C 18.2105541229248 73.50935363769531 13.92334365844727 70.61894226074219 10.24204349517822 66.93764495849609 C 6.560743808746338 63.25634384155273 3.670332670211792 58.96913146972656 1.651077032089233 54.19507598876953 C -0.4398229122161865 49.25163269042969 -1.500000715255737 44.00127792358398 -1.500000715255737 38.58984375 C -1.500000715255737 33.17840957641602 -0.4398229122161865 27.92805480957031 1.651077032089233 22.98460960388184 C 3.670332670211792 18.2105541229248 6.560743808746338 13.92334365844727 10.24204349517822 10.24204349517822 C 13.92334365844727 6.560743808746338 18.2105541229248 3.670332670211792 22.98460960388184 1.651077032089233 C 27.92805480957031 -0.4398229122161865 33.17840957641602 -1.500000715255737 38.58984375 -1.500000715255737 C 44.00127792358398 -1.500000715255737 49.25163269042969 -0.4398229122161865 54.19507598876953 1.651077032089233 C 58.96913146972656 3.670332670211792 63.25634384155273 6.560743808746338 66.93764495849609 10.24204349517822 C 70.61894226074219 13.92334365844727 73.50935363769531 18.2105541229248 75.52861022949219 22.98460960388184 C 77.6195068359375 27.92805480957031 78.6796875 33.17840957641602 78.6796875 38.58984375 C 78.6796875 44.00127792358398 77.6195068359375 49.25163269042969 75.52861022949219 54.19507598876953 C 73.50935363769531 58.96913146972656 70.61894226074219 63.25634384155273 66.93764495849609 66.93764495849609 C 63.25634384155273 70.61894226074219 58.96913146972656 73.50935363769531 54.19507598876953 75.52861022949219 C 49.25163269042969 77.6195068359375 44.00127792358398 78.6796875 38.58984375 78.6796875 Z" stroke="none"/><path d="M 38.58984375 -7.62939453125e-06 C 17.27725601196289 -7.62939453125e-06 -7.62939453125e-06 17.27725601196289 -7.62939453125e-06 38.58984375 C -7.62939453125e-06 59.90242004394531 17.27725601196289 77.17967987060547 38.58984375 77.17967987060547 C 59.90242004394531 77.17967987060547 77.17967987060547 59.90242004394531 77.17967987060547 38.58984375 C 77.17967987060547 17.27725601196289 59.90242004394531 -7.62939453125e-06 38.58984375 -7.62939453125e-06 M 38.58984375 -3.000007629394531 C 44.20311737060547 -3.000007629394531 49.65007019042969 -1.899971008300781 54.77940368652344 0.2695541381835938 C 59.73225402832031 2.36444091796875 64.17973327636719 5.362808227539062 67.998291015625 9.181381225585938 C 71.81687164306641 12.99994659423828 74.81523132324219 17.44742965698242 76.91011810302734 22.4002799987793 C 79.07964324951172 27.52961730957031 80.17967987060547 32.97657012939453 80.17967987060547 38.58984375 C 80.17967987060547 44.20311737060547 79.07964324951172 49.65007019042969 76.91011810302734 54.77940368652344 C 74.81523132324219 59.73225402832031 71.81687164306641 64.17973327636719 67.998291015625 67.998291015625 C 64.17973327636719 71.81687164306641 59.73225402832031 74.81523132324219 54.77940368652344 76.91011810302734 C 49.65007019042969 79.07964324951172 44.20311737060547 80.17967987060547 38.58984375 80.17967987060547 C 32.97657012939453 80.17967987060547 27.52961730957031 79.07964324951172 22.4002799987793 76.91011810302734 C 17.44742965698242 74.81523132324219 12.99994659423828 71.81687164306641 9.181381225585938 67.998291015625 C 5.362808227539062 64.17973327636719 2.36444091796875 59.73225402832031 0.2695541381835938 54.77940368652344 C -1.899971008300781 49.65007019042969 -3.000007629394531 44.20311737060547 -3.000007629394531 38.58984375 C -3.000007629394531 32.97657012939453 -1.899971008300781 27.52961730957031 0.2695541381835938 22.4002799987793 C 2.36444091796875 17.44742965698242 5.362808227539062 12.99994659423828 9.181381225585938 9.181381225585938 C 12.99994659423828 5.362808227539062 17.44742965698242 2.36444091796875 22.4002799987793 0.2695541381835938 C 27.52961730957031 -1.899971008300781 32.97657012939453 -3.000007629394531 38.58984375 -3.000007629394531 Z" stroke="none" fill="#fff"/></g><rect width="15.541" height="30.819" transform="translate(34.819 41.141)" fill="#edb98a"/><path d="M17.038,0H43.384A18.969,18.969,0,0,1,60.321,10.415,38.53,38.53,0,0,1,30.08,25.024,38.527,38.527,0,0,1,0,10.618,18.971,18.971,0,0,1,17.038,0Z" transform="translate(12.429 56.156)" fill="#edb98a"/><path d="M30.08,25.024A38.527,38.527,0,0,1,0,10.618,18.971,18.971,0,0,1,17.038,0h2.7A4.485,4.485,0,0,0,19.6,1.1C19.6,4.9,24.425,7.97,30.372,7.97S41.14,4.9,41.14,1.1A4.484,4.484,0,0,0,41,0h2.382A19.014,19.014,0,0,1,60.321,10.465,38.486,38.486,0,0,1,30.08,25.024Z" transform="translate(12.429 56.156)" fill="#262e33"/><rect width="7.902" height="11.854" rx="3.951" transform="translate(55.629 23.756)" fill="#edb98a"/><rect width="7.902" height="11.854" rx="3.951" transform="translate(20.858 23.756)" fill="#edb98a"/><rect width="35.984" height="48.12" rx="17.992" transform="translate(24.019 4)" fill="#edb98a"/><path d="M15.541,2.636A17.538,17.538,0,0,1,7.192,4.741,17.529,17.529,0,0,1,0,3.206V.571A17.529,17.529,0,0,0,7.192,2.106,17.538,17.538,0,0,0,15.541,0V2.636Z" transform="translate(34.819 49.834)" fill="#d4a67b"/><g transform="translate(35.792 66.749)"><path d="M4.09,13.474h0c-.544,0-.686-.411-.822-.809a1.2,1.2,0,0,0-.474-.741.661.661,0,0,0-.312-.074,2.148,2.148,0,0,0-.918.329c-.126.067-.245.131-.356.177L1.1,12.4a1.562,1.562,0,0,1-.587.173A.492.492,0,0,1,.12,12.4c-.314-.357.062-.913.287-1.244l.064-.095A32.582,32.582,0,0,0,3.648,5.208c.089-.22.18-.444.268-.66v0c.253-.622.515-1.265.758-1.9.041-.107.081-.217.119-.322A3.728,3.728,0,0,1,5.8.6a1.7,1.7,0,0,1,.038.418,1.517,1.517,0,0,0,.04.413c.025.083.038.141.048.183.025.109.025.109.13.129a2.333,2.333,0,0,1,.233.056,3.394,3.394,0,0,1,.9.454,7.55,7.55,0,0,1,1.92,1.731A18.21,18.21,0,0,1,10.24,5.638l.086.142a5.014,5.014,0,0,1,.519,1.008,1.693,1.693,0,0,1,.059.4c.018.258.036.5.247.55a1.355,1.355,0,0,1-.394.42,1.6,1.6,0,0,0,1.2-.989,2.664,2.664,0,0,0-.272-1.875A8.822,8.822,0,0,0,10.6,3.539,7.324,7.324,0,0,0,7.98,1.276,7.424,7.424,0,0,0,6.691.849,8.183,8.183,0,0,1,5.523.477,1.224,1.224,0,0,1,6.555,0,4,4,0,0,1,8.379.586,9.457,9.457,0,0,1,9.8,1.548,10.405,10.405,0,0,1,11.755,3.72a6.249,6.249,0,0,1,1.076,2.7,2.482,2.482,0,0,1-.057.913,2.12,2.12,0,0,1-.409.856,1.1,1.1,0,0,1-.827.428h-.027a1.206,1.206,0,0,1-.5-.137l-.031-.014a1.021,1.021,0,0,0-.4-.123.413.413,0,0,0-.061,0,3.178,3.178,0,0,0-.907.431c-.164.1-.318.19-.442.247a4.253,4.253,0,0,0-2.093,1.584,1.355,1.355,0,0,1-1.083.784,1.219,1.219,0,0,1-.71-.267,3.3,3.3,0,0,0-.206.837c-.114.692-.244,1.477-.927,1.511Zm-.163-2.584h0c.077,0,.12.006.128.019a.009.009,0,0,1,0,.009,2.1,2.1,0,0,1-.583.553,2.984,2.984,0,0,1,.39.69,4.588,4.588,0,0,0,.232.466,3.331,3.331,0,0,0,.182-.855c.082-.626.166-1.273.7-1.488a.818.818,0,0,1,.31-.067.747.747,0,0,1,.407.136l.041.026a.521.521,0,0,0,.262.11c.134,0,.27-.122.442-.395a4.351,4.351,0,0,1,1.544-1.42,10.8,10.8,0,0,1,1.96-.85,2.27,2.27,0,0,1,.6-.115A11.509,11.509,0,0,1,9.505,6.057,12.479,12.479,0,0,0,8.54,4.485,5.835,5.835,0,0,0,7.2,3.2c-.137-.1-.287-.185-.432-.272a3.076,3.076,0,0,1-1.026-.837c-.149.44-.334.877-.513,1.3l-.017.04a1.207,1.207,0,0,1,.169-.012,1.265,1.265,0,0,1,.753.261,1.849,1.849,0,0,1,.533.644,1.672,1.672,0,0,1-.014,1.71,2.006,2.006,0,0,1-1.489.711,1.036,1.036,0,0,1-.651-.2.97.97,0,0,1-.34-.68A29.758,29.758,0,0,1,2.808,8.689l.07,0a.631.631,0,0,1,.674.612,1.355,1.355,0,0,1-.183.8,1.025,1.025,0,0,1-.641.51.664.664,0,0,1-.15.017,1.026,1.026,0,0,1-.239-.035,1.314,1.314,0,0,0-.242-.039c-.085-.108-.157-.162-.216-.162s-.106.055-.139.164c-.1.155-.2.309-.294.458-.121.184-.232.348-.338.5a7.458,7.458,0,0,1,1.277-.448l.036-.01A14.046,14.046,0,0,1,3.927,10.889Z" transform="translate(0 0)" fill="#fff"/><path d="M1.94.049C1.16-.094.074.026,0,1.061a1.684,1.684,0,0,0,.99,1.5c1.646.8,2.926-2.146.947-2.508" transform="translate(4.015 7.276)" fill="#fff"/><path d="M1.875.756a.929.929,0,0,0-.86-.318c.1-.069.183-.193.278-.269C.279-.565-.358,1.285.218,2.013,1.091,3.116,2.8,1.767,1.875.756" transform="translate(7.228 5.389)" fill="#fff"/></g><g transform="translate(28.05 20.104)"><g transform="translate(8.155 19.236)"><path d="M0,.683A6.1,6.1,0,0,0,6.069,6.1,6.1,6.1,0,0,0,12.139.654.672.672,0,0,0,11.545,0H.635A.684.684,0,0,0,0,.683Z" transform="translate(0 0)" fill="rgba(0,0,0,0.7)"/><path d="M0,0H9.96V.287A1.317,1.317,0,0,1,8.643,1.6H1.317A1.317,1.317,0,0,1,0,.287V0Z" transform="translate(1.25 0)" fill="#fff"/><path d="M8.156,1.007a6.087,6.087,0,0,1-4.078,1.56A6.087,6.087,0,0,1,0,1.007,3.541,3.541,0,0,1,4.078.385a3.541,3.541,0,0,1,4.078.622Z" transform="translate(1.991 3.529)" fill="#ff4f6d"/></g><g transform="translate(10.369 13.782)"><path d="M0,0C0,1.455,1.71,2.634,3.819,2.634h0C5.929,2.634,7.639,1.455,7.639,0" transform="translate(0 0)" fill="rgba(0,0,0,0.16)"/></g><g transform="translate(1.373 3.517)"><ellipse cx="4.498" cy="4.491" rx="4.498" ry="4.491" transform="translate(0 0)" fill="#fff"/><ellipse cx="4.498" cy="4.491" rx="4.498" ry="4.491" transform="translate(16.707 0)" fill="#fff"/><ellipse cx="1.928" cy="1.925" rx="1.928" ry="1.925" transform="translate(2.57 5.133)" fill="rgba(0,0,0,0.7)"/><ellipse cx="1.928" cy="1.925" rx="1.928" ry="1.925" transform="translate(19.277 5.133)" fill="rgba(0,0,0,0.7)"/></g><g transform="translate(0 0)"><path d="M4.561.069C2.69.324-.229,1.978.014,3.891a.081.081,0,0,0,.142.03C.964,2.871,7.21,1.329,9.484,1.65c.208.03.346-.188.2-.324A6.621,6.621,0,0,0,4.561.069" transform="matrix(0.996, 0.087, -0.087, 0.996, 0.344, 0)" fill="rgba(0,0,0,0.6)"/><path d="M5.185.074C7.057.346,9.976,2.11,9.732,4.151a.079.079,0,0,1-.142.032C8.782,3.063,2.536,1.417.262,1.76a.21.21,0,0,1-.2-.346A6.312,6.312,0,0,1,5.185.074" transform="matrix(0.996, -0.087, 0.087, 0.996, 18.966, 0.849)" fill="rgba(0,0,0,0.6)"/></g></g><g transform="translate(24.021 23.492)"><path d="M18.306,28.448A25.952,25.952,0,0,1,9.99,26.656a15.609,15.609,0,0,1-7.485-6.712A18.33,18.33,0,0,1,.7,15.674a15.334,15.334,0,0,1-.591-4.012V5.156C.109,5.109-.2.488.222.036A.1.1,0,0,1,.294,0a17.082,17.082,0,0,1,.8,6.27c.006.9.012,1.753.071,2.576a18.334,18.334,0,0,0,.642,3.906,6.067,6.067,0,0,0,2.051,3.3,14.479,14.479,0,0,0,1.763,1.118,4.634,4.634,0,0,0,2.046.617,2.011,2.011,0,0,0,.5-.061c.467-.121.724-.837,1.022-1.665a5.168,5.168,0,0,1,1.255-2.267,6.88,6.88,0,0,1,2.156-1.184,7.535,7.535,0,0,1,2.408-.386c.117,0,.235,0,.353.008l.245.009a4.854,4.854,0,0,1,2.693.6,4.852,4.852,0,0,1,2.692-.6l.246-.009c.117-.005.236-.008.353-.008A7.535,7.535,0,0,1,24,12.608a6.882,6.882,0,0,1,2.156,1.184,5.169,5.169,0,0,1,1.254,2.267c.3.828.554,1.544,1.021,1.665a2.012,2.012,0,0,0,.505.061,4.634,4.634,0,0,0,2.046-.617,14.483,14.483,0,0,0,1.763-1.118,6.067,6.067,0,0,0,2.051-3.3,18.322,18.322,0,0,0,.642-3.906c.059-.824.065-1.676.071-2.577A17.08,17.08,0,0,1,36.318,0a.1.1,0,0,1,.072.036c.423.452.113,5.073.109,5.12v6.507a15.5,15.5,0,0,1-.591,4.028A18.63,18.63,0,0,1,34.107,20a15.582,15.582,0,0,1-7.485,6.764,24.687,24.687,0,0,1-3.7,1.1A22.5,22.5,0,0,1,18.306,28.448Zm0-6a3.243,3.243,0,0,1,1.732.479,4.156,4.156,0,0,1,.9.776c.1.113.172.187.213.2a3.205,3.205,0,0,0,.663.073,3.019,3.019,0,0,0,2.092-.9c1.363-1.238,2.819-3.171,2.021-5.354-.541-1.48-1.263-2.334-2.207-2.613a6.036,6.036,0,0,0-1.635-.175c-.228,0-.46,0-.685.01h-.007c-.223,0-.452.009-.674.009a6.431,6.431,0,0,1-1.26-.1,2.8,2.8,0,0,1-1.151-.466,2.8,2.8,0,0,1-1.151.466,6.434,6.434,0,0,1-1.26.1c-.221,0-.451,0-.673-.009h-.007c-.225,0-.458-.01-.685-.01a5.542,5.542,0,0,0-1.635.175c-.944.278-1.666,1.133-2.207,2.613-.8,2.183.659,4.116,2.021,5.354a3.019,3.019,0,0,0,2.092.9,3.2,3.2,0,0,0,.663-.073c.041-.009.11-.083.213-.2a4.156,4.156,0,0,1,.9-.776A3.243,3.243,0,0,1,18.306,22.45Z" transform="translate(0 0)" fill="#4a312c"/></g><g transform="translate(21.469 21.523)"><g transform="translate(0 0)"><path d="M8.032,13.153H7.146C2.671,13.153,0,10.694,0,6.576,0,3.249.584,0,7.56,0H8.5c6.976,0,7.56,3.249,7.56,6.576C16.064,10.448,12.761,13.153,8.032,13.153ZM7.513,1.925c-6.228,0-6.228,2.194-6.228,4.973,0,2.268,1,4.972,5.774,4.972h.973c3.973,0,6.747-2.044,6.747-4.972,0-2.778,0-4.973-6.228-4.973Z" transform="translate(2.892 0)" fill="#252c2f"/><path d="M8.032,13.153H7.146C2.671,13.153,0,10.694,0,6.576,0,3.249.584,0,7.56,0H8.5c6.976,0,7.56,3.249,7.56,6.576C16.064,10.448,12.761,13.153,8.032,13.153ZM7.513,1.925c-6.228,0-6.228,2.194-6.228,4.973,0,2.268,1,4.972,5.774,4.972h.973c3.973,0,6.747-2.044,6.747-4.972,0-2.778,0-4.973-6.228-4.973Z" transform="translate(22.811 0)" fill="#252c2f"/><path d="M.949,1.852C1.171,1.635,3.6,0,10.442,0c5.735,0,6.949.594,8.787,1.492l.135.066a5.473,5.473,0,0,0,1.545.291,5.468,5.468,0,0,0,1.466-.279C24.472.552,26.525,0,31.325,0c6.84,0,9.27,1.635,9.492,1.852a.937.937,0,0,1,.949.926V3.7a.937.937,0,0,1-.949.926s-2.217,0-2.217.926-.63-1.34-.63-1.852V2.8a16.98,16.98,0,0,0-6.645-1.266A17.074,17.074,0,0,0,24,2.878l.018.044v.637l-.712,1.716-.88-.347a4.192,4.192,0,0,0-.483-.145,4.463,4.463,0,0,0-1.925-.088,2.546,2.546,0,0,0-.608.2l-.849.414-.849-1.656.038-.736.026-.063c-1.4-.652-2.694-1.322-7.333-1.322A16.983,16.983,0,0,0,3.8,2.8v.9c0,.512-.949,2.777-.949,1.852s-1.9-.926-1.9-.926A.937.937,0,0,1,0,3.7V2.777A.937.937,0,0,1,.949,1.852Z" transform="translate(0 0)" fill="#252c2f"/></g></g></g></g></svg>